<?xml version="1.0" encoding="UTF-8"?>
<svg id="Layer_1" data-name="Layer 1" xmlns="http://www.w3.org/2000/svg" viewBox="0 0 512 512">
  <defs>
    <style>
      .cls-1 {
        stroke: #495fc1;
      }

      .cls-1, .cls-2 {
        fill: none;
        stroke-miterlimit: 10;
        stroke-width: 25px;
      }

      .cls-2 {
        stroke: #58bcdf;
      }
    </style>
  </defs>
  <rect class="cls-1" x="72.69" y="399.01" width="348.39" height="81.99"/>
  <line class="cls-1" x1="92.45" y1="282.04" x2="92.45" y2="388.22"/>
  <line class="cls-1" x1="129.89" y1="399.01" x2="129.89" y2="475.61"/>
  <line class="cls-1" x1="167.33" y1="399.01" x2="167.33" y2="475.61"/>
  <line class="cls-1" x1="205.81" y1="399.01" x2="205.81" y2="481"/>
  <line class="cls-1" x1="400.28" y1="299.76" x2="400.28" y2="399.01"/>
  <path class="cls-2" d="M122.61,303c-59.01-23.96-95.4-77.85-91.3-130.26,.24-3.11,6.47-69.37,59.06-89.81,35.92-13.96,69.21,2.89,75.92,6.47"/>
  <path class="cls-2" d="M250.53,262.01c6.09,22.21,24.87,38.19,46.8,39.92,22.81,1.79,44.41-12.21,53.04-34.52"/>
  <path class="cls-2" d="M142.37,104.5c10.17-12.75,48.19-57.26,114.4-70.12,68.72-13.34,121.55,16.39,138.32,26.97,18.29,11.53,65.51,41.32,80.08,100.33,3.99,16.16,17.04,68.99-16.64,107.88-23.63,27.29-63.47,39.87-98.8,28.05-24.96-8.35-39.73-26.22-45.76-34.52"/>
</svg>