<?xml version="1.0" encoding="UTF-8"?>
<svg id="Layer_1" data-name="Layer 1" xmlns="http://www.w3.org/2000/svg" viewBox="0 0 615 320">
  <defs>
    <style>
      .cls-1, .cls-2 {
        fill: #fff;
      }

      .cls-3 {
        fill: #0082f0;
      }

      .cls-4 {
        fill: none;
        stroke: #f2f2f2;
        stroke-width: 5px;
      }

      .cls-4, .cls-2 {
        stroke-miterlimit: 10;
      }

      .cls-5 {
        fill: #f2f2f2;
        font-family: MyriadPro-Regular, 'Myriad Pro';
        font-size: 13.12px;
      }

      .cls-6 {
        letter-spacing: 0em;
      }

      .cls-2 {
        stroke: #fff;
      }
    </style>
  </defs>
  <rect class="cls-3" width="615" height="320"/>
  <rect class="cls-1" x="341.17" y="128.75" width="6.25" height="62.5" transform="translate(184.3 504.3) rotate(-90)"/>
  <rect class="cls-2" x="266.68" y="129.68" width="6.25" height="62.5" transform="translate(108.87 430.74) rotate(-90)"/>
  <circle class="cls-1" cx="233.94" cy="88.95" r="9.37"/>
  <circle class="cls-1" cx="307.11" cy="87.08" r="9.38"/>
  <circle class="cls-1" cx="380.56" cy="87.08" r="9.38"/>
  <circle class="cls-1" cx="307.53" cy="160" r="9.38"/>
  <circle class="cls-1" cx="234.76" cy="160.28" r="9.38"/>
  <circle class="cls-1" cx="381.11" cy="160.28" r="9.38"/>
  <circle class="cls-1" cx="234.76" cy="233.54" r="9.38"/>
  <circle class="cls-1" cx="307.3" cy="233.54" r="9.37"/>
  <circle class="cls-1" cx="381.11" cy="233.54" r="9.38"/>
  <rect class="cls-1" x="230.81" y="93.69" width="6.25" height="62.5"/>
  <rect class="cls-1" x="231.64" y="166.75" width="6.25" height="62.5"/>
  <rect class="cls-1" x="303.5" y="92.17" width="6.25" height="62.5"/>
  <rect class="cls-1" x="304.17" y="166.75" width="6.25" height="62.5"/>
  <rect class="cls-1" x="341.17" y="55.21" width="6.25" height="62.5" transform="translate(257.84 430.76) rotate(-90)"/>
  <rect class="cls-1" x="341.17" y="145.26" width="6.25" height="104.22" transform="translate(448.19 580.39) rotate(-135)"/>
  <rect class="cls-1" x="341.8" y="146.21" width="6.25" height="103.57" transform="translate(728.82 94.1) rotate(135)"/>
  <rect class="cls-1" x="267.23" y="71.64" width="6.25" height="103.57" transform="translate(548.79 19.53) rotate(135)"/>
  <text class="cls-5" transform="translate(300.79 263.96)"><tspan x="0" y="0">-B</tspan><tspan class="cls-6" x="11.14" y="0">r</tspan><tspan x="15.49" y="0">ings Changes</tspan></text>
  <line class="cls-4" x1="305.62" y1="270.44" x2="389.99" y2="270.44"/>
</svg>