<?xml version="1.0" encoding="UTF-8"?>
<svg id="Layer_1" data-name="Layer 1" xmlns="http://www.w3.org/2000/svg" viewBox="0 0 1091.49 244.15">
  <defs>
    <style>
      .cls-1 {
        stroke: #58bcdf;
      }

      .cls-1, .cls-2 {
        fill: none;
        stroke-miterlimit: 10;
        stroke-width: 19px;
      }

      .cls-2 {
        stroke: #495fc1;
      }
    </style>
  </defs>
  <path class="cls-1" d="M482.3,59.62c-2.16,10.63-5.54,25.8-10.6,43.84-15.15,54-23.26,81.42-49.31,101.63-8.26,6.41-27.47,20.88-54.38,20.33-4.63-.1-30.12-.62-46.09-18.33-12.75-14.15-17.3-36.89-4.15-53.01,9.34-11.44,23.85-14.94,29.5-15.94,7.44-1.32,21.04-3.74,30.88,3.99,7.71,6.05,11.05,16.11,7.83,25.11-3.77,10.52-15.82,17.84-29.5,17.54"/>
  <path class="cls-2" d="M440.82,74.77c4.48,13.58-1.47,26.85-12.9,33.88-9.17,5.64-21.97,4.46-30.42,1.2-20.35-7.87-21.59-30.27-21.66-32.28-.57-15.37,10.52-26.34,16.59-32.28,27.63-27.04,75.57-32.28,111.07-24.31,13.59,3.05,31.46,7.31,42.4,21.92,1.82,2.43,14.33,19.74,5.53,38.26-8.68,18.26-32.51,24.74-47.47,25.11-3.96,.1-7.19-1.68-8.3-.4-3.02,3.49,19.45,14.25,27.65,35.47,6.3,16.29-.26,27.21,9.22,33.88,7.13,5.02,16.96,3.54,19.36,3.19,13.17-1.94,13.55-14.68,27.65-24.21,5.39-3.64,14.34-8.03,29.04-9.37,2.93-.32,24.91-3.05,35.95-19.83,4.86-7.38,10.5-21.88,3.69-27.5-10.1-8.34-47.64,1.17-60.84,24.31-8.48,14.87-8.3,37.96,8.76,49.82,15.86,11.03,36.79,5.85,38.2,5.48,21.84-5.75,37.48-27.28,37.05-53.37"/>
  <path class="cls-2" d="M723.71,97.48c-1.01-.54-19.87-10.3-36.12-2.59-15.2,7.21-19.29,26.02-14.11,38.46,8.15,19.6,36.35,16.37,44.01,36.57,5.62,14.81-4.35,30.25-7.14,34.57-3.14,4.86-9.58,14.79-22.81,18.93-3.48,1.09-13.43,4.2-21.77-.19-6.2-3.27-10.09-9.92-10.12-16-.09-20.69,43.23-37.14,52.86-40.8,17.05-6.48,19.28-4.27,27.65-9.76,11.42-7.49,17.04-18.02,25.81-47.23,4.45-14.85,9.73-34.55,14.29-58.19"/>
  <path class="cls-1" d="M742.14,74.77c18.59-.13,37.18-.27,55.77-.4"/>
  <path class="cls-2" d="M755.44,129.35c-8.94,22.97-7.51,42.11,3.29,47.84,3.84,2.04,7.84,1.86,8.99,1.79,19.22-1.12,38.94-49.62,38.94-49.62,13.09-32.11,27.33-78.17,45.02-95.73,1.84-1.82,6.28-5.88,13.39-8.3,2.85-.97,17.1-5.8,26.85,1.59,6.54,4.97,8.35,13.41,5.99,19.93-3.65,10.08-16.81,13.78-21.66,15.15-34.74,9.77-78.34-30.73-82.5-34.67"/>
  <path class="cls-2" d="M800.29,143.06c5.44-11.91,11.37-21.15,15.93-27.54,10.15-14.22,17.97-24.85,29.15-25.21,4.55-.15,9.74,1.4,13.37,4.38,19.12,15.71-18.18,60.26,.92,78.02,6.3,5.86,17.24,7.4,24.51,5.51,13.75-3.58,21.9-21.39,27.32-33.24,.22-.49,.34-.74,.45-.99,.28-.63,.48-1.09,.48-1.11,14.99-35.3,40.33-37.02,40.33-37.02,1.35-.09,14.58-.78,22.12,6.78,15.6,15.61-2.36,57.16-28.11,60.98-9.26,1.37-20-2.06-26.39-8.77-9.04-9.5-8.88-25.07,1.51-38.12"/>
  <path class="cls-2" d="M995.39,102.67c-3.01,6.3-26.44,56.35-9.91,71.74,1.22,1.13,4.49,4.18,9.45,4.78,11.63,1.41,22.42-12.09,27.42-18.33,22.92-28.62,37.53-92.23,41.48-110.4"/>
  <path class="cls-1" d="M1026.5,73.17c21.66,.8,43.32,1.59,64.98,2.39"/>
  <path class="cls-2" d="M1080.97,143.77c-5.21,11.96-10.99,20.19-15.06,25.26-2.04,2.54-4.27,5.06-8.15,6.97-5.99,2.95-14.08,3.55-19.47,1.2-9.21-4.03-13.95-18.23-5.68-32.29"/>
  <rect class="cls-2" x="46.4" y="186.32" width="189.56" height="37.19"/>
  <line class="cls-2" x1="57.15" y1="133.26" x2="57.15" y2="181.42"/>
  <line class="cls-2" x1="77.52" y1="186.32" x2="77.52" y2="221.06"/>
  <line class="cls-2" x1="102.18" y1="186.32" x2="102.18" y2="221.06"/>
  <line class="cls-2" x1="126.84" y1="186.32" x2="126.84" y2="223.5"/>
  <line class="cls-2" x1="224.64" y1="141.3" x2="224.64" y2="186.32"/>
  <path class="cls-1" d="M73.56,142.76c-32.11-10.87-51.91-35.31-49.67-59.09,.13-1.41,3.52-31.47,32.13-40.74,19.55-6.33,37.66,1.31,41.31,2.94"/>
  <path class="cls-1" d="M143.16,124.17c3.31,10.08,13.53,17.32,25.46,18.11,12.41,.81,24.16-5.54,28.86-15.66"/>
  <path class="cls-1" d="M84.31,52.73c5.53-5.78,26.22-25.97,62.24-31.81,37.39-6.05,66.13,7.44,75.26,12.23,9.95,5.23,35.64,18.74,43.57,45.51,2.17,7.33,9.27,31.29-9.05,48.93-12.86,12.38-34.54,18.08-53.76,12.72-13.58-3.79-21.62-11.9-24.9-15.66"/>
</svg>