<?xml version="1.0" encoding="UTF-8"?>
<svg id="Layer_1" data-name="Layer 1" xmlns="http://www.w3.org/2000/svg" viewBox="0 0 615 320">
  <defs>
    <style>
      .cls-1 {
        fill: #fff;
      }

      .cls-2 {
        stroke: #58bcdf;
      }

      .cls-2, .cls-3 {
        fill: none;
        stroke-miterlimit: 10;
        stroke-width: 7px;
      }

      .cls-3 {
        stroke: #495fc1;
      }
    </style>
  </defs>
  <rect class="cls-1" width="615" height="320"/>
  <g>
    <path class="cls-2" d="M279.85,139.87c-1.05,5.99-2.7,14.54-5.17,24.71-7.39,30.44-11.34,45.89-24.04,57.28-4.02,3.61-13.39,11.77-26.51,11.46-2.26-.05-14.68-.35-22.46-10.33-6.21-7.97-8.43-20.79-2.02-29.88,4.55-6.45,11.62-8.42,14.38-8.99,3.62-.75,10.25-2.11,15.05,2.25,3.76,3.41,5.39,9.08,3.82,14.15-1.84,5.93-7.71,10.05-14.38,9.88"/>
    <path class="cls-3" d="M259.63,148.4c2.18,7.65-.72,15.13-6.29,19.09-4.47,3.18-10.71,2.52-14.83,.67-9.92-4.44-10.52-17.06-10.56-18.2-.28-8.66,5.13-14.85,8.09-18.2,13.47-15.24,36.84-18.2,54.14-13.7,6.62,1.72,15.33,4.12,20.67,12.36,.89,1.37,6.98,11.13,2.7,21.57-4.23,10.29-15.84,13.95-23.14,14.15-1.93,.05-3.5-.95-4.04-.22-1.47,1.97,9.48,8.03,13.48,19.99,3.07,9.18-.13,15.34,4.49,19.09,3.48,2.83,8.27,2,9.43,1.8,6.42-1.09,6.6-8.28,13.48-13.65,2.63-2.05,6.99-4.53,14.15-5.28,1.43-.18,12.14-1.72,17.52-11.18,2.37-4.16,5.12-12.33,1.8-15.5-4.92-4.7-23.22,.66-29.65,13.7-4.13,8.38-4.05,21.39,4.27,28.08,5.38,4.33,12.83,5.04,18.62,3.09,9.99-3.36,16.81-15.22,15.27-28.89"/>
    <path class="cls-3" d="M394.64,161.21c-.49-.3-9.68-5.81-17.61-1.46-7.41,4.06-9.4,14.66-6.88,21.68,3.97,11.05,17.72,9.23,21.45,20.61,2.74,8.35-2.12,17.05-3.48,19.49-1.53,2.74-4.67,8.34-11.12,10.67-1.69,.61-6.55,2.37-10.61-.11-3.02-1.84-4.92-5.59-4.93-9.02-.04-11.66,21.07-20.94,25.76-23,8.31-3.65,9.4-2.41,13.48-5.5,5.56-4.22,8.31-10.16,12.58-26.62,2.17-8.37,4.74-19.47,6.96-32.8"/>
    <path class="cls-2" d="M403.62,148.4c9.06-.07,18.12-.15,27.18-.22"/>
    <path class="cls-3" d="M410.11,179.17c-4.36,12.95-3.66,23.74,1.6,26.97,1.87,1.15,3.82,1.05,4.38,1.01,9.37-.63,18.98-27.97,18.98-27.97,6.38-18.1,13.32-44.06,21.95-53.95,.9-1.03,3.06-3.32,6.53-4.68,1.39-.54,8.34-3.27,13.09,.9,3.19,2.8,4.07,7.56,2.92,11.23-1.78,5.68-8.19,7.77-10.56,8.54-16.93,5.51-38.19-17.32-40.21-19.54"/>
    <path class="cls-3" d="M431.97,186.9c2.65-6.71,5.54-11.92,7.77-15.52,4.95-8.01,8.76-14.01,14.21-14.21,2.22-.08,4.75,.79,6.51,2.47,9.32,8.85-8.86,33.97,.45,43.97,3.07,3.3,8.4,4.17,11.95,3.1,6.7-2.02,10.68-12.06,13.32-18.74,.11-.27,.17-.42,.22-.56,.14-.36,.23-.62,.24-.63,7.31-19.89,19.66-20.86,19.66-20.86,.66-.05,7.11-.44,10.78,3.82,7.6,8.8-1.15,32.22-13.7,34.37-4.51,.77-9.75-1.16-12.86-4.94-4.41-5.35-4.33-14.13,.74-21.48"/>
    <path class="cls-3" d="M527.06,164.13c-1.47,3.55-12.89,31.76-4.83,40.44,.59,.64,2.19,2.36,4.61,2.7,5.67,.79,10.93-6.81,13.37-10.33,11.17-16.13,18.29-51.98,20.22-62.23"/>
    <path class="cls-2" d="M542.23,147.51c10.56,.45,21.12,.9,31.67,1.35"/>
    <path class="cls-3" d="M568.77,187.3c-2.54,6.74-5.36,11.38-7.34,14.24-.99,1.43-2.08,2.85-3.97,3.93-2.92,1.66-6.86,2-9.49,.67-4.49-2.27-6.8-10.28-2.77-18.2"/>
    <g>
      <rect class="cls-3" x="54.61" y="204.67" width="112.88" height="25.61"/>
      <line class="cls-3" x1="61.01" y1="168.13" x2="61.01" y2="201.3"/>
      <line class="cls-3" x1="73.14" y1="204.67" x2="73.14" y2="228.59"/>
      <line class="cls-3" x1="85.27" y1="204.67" x2="85.27" y2="228.59"/>
      <line class="cls-3" x1="97.74" y1="204.67" x2="97.74" y2="230.28"/>
      <line class="cls-3" x1="160.75" y1="173.67" x2="160.75" y2="204.67"/>
      <path class="cls-2" d="M70.78,174.68c-19.12-7.48-30.91-24.32-29.58-40.69,.08-.97,2.1-21.67,19.13-28.05,11.64-4.36,22.42,.9,24.6,2.02"/>
      <path class="cls-2" d="M112.23,161.88c1.97,6.94,8.06,11.93,15.16,12.47,7.39,.56,14.39-3.81,17.18-10.78"/>
      <path class="cls-2" d="M77.19,112.68c3.3-3.98,15.61-17.89,37.07-21.9,22.26-4.17,39.38,5.12,44.82,8.42,5.92,3.6,21.22,12.91,25.95,31.34,1.29,5.05,5.52,21.55-5.39,33.7-7.66,8.52-20.57,12.45-32.01,8.76-8.09-2.61-12.87-8.19-14.83-10.78"/>
    </g>
  </g>
</svg>